Coordinates
version=1
nRows=17
nColumns=36
inDegrees=yes

Units are S.I. units (second, meters, Newtons, ...)
If the header above contains a line with 'inDegrees', this indicates whether rotational values are in degrees (yes) or radians (no).

endheader
time	pelvis_tilt	pelvis_list	pelvis_rotation	pelvis_tx	pelvis_ty	pelvis_tz	hip_flexion_r	hip_adduction_r	hip_rotation_r	knee_angle_r	knee_angle_r_beta	ankle_angle_r	subtalar_angle_r	mtp_angle_r	hip_flexion_l	hip_adduction_l	hip_rotation_l	knee_angle_l	knee_angle_l_beta	ankle_angle_l	subtalar_angle_l	mtp_angle_l	lumbar_extension	lumbar_bending	lumbar_rotation	arm_flex_r	arm_add_r	arm_rot_r	elbow_flex_r	pro_sup_r	arm_flex_l	arm_add_l	arm_rot_l	elbow_flex_l	pro_sup_l
      6.48333330	    -14.72790614	     17.39211405	     19.12251332	      0.67122857	      0.88721889	      0.00390331	     72.38273085	    -19.53553040	     17.74225558	     35.45287562	      0.61876941	     -0.83694455	      2.61693297	     -7.49999987	     52.22146227	     29.67984060	    -15.81245677	     52.62235297	      0.91843332	     11.33868201	    -32.02379656	     -7.49999987	    -34.35404109	     -0.73445872	    -14.76951154	     42.94610985	     -4.83471831	     59.13885423	    124.44305284	    111.78756769	     64.81712753	      4.44552031	     67.65519723	    119.05276212	    108.47700204
      6.50000000	    -15.29481548	     17.64720567	     19.30197201	      0.67185888	      0.88369375	      0.00379612	     73.72805286	    -19.89270345	     18.11129769	     35.68355182	      0.62279547	     -0.75534731	      3.29866990	     -7.49999987	     53.61515404	     29.66825628	    -16.53305325	     53.56372875	      0.93486343	     11.04683377	    -32.12015493	     -7.49999987	    -35.05285597	     -0.76068120	    -15.01702314	     42.96584936	     -4.81361403	     59.59032867	    124.31528716	    111.79688782	     65.17088002	      4.39609387	     67.63218495	    119.10639036	    108.39824354
      6.51666670	    -16.43966032	     17.82297135	     19.68489162	      0.67168556	      0.87657229	      0.00330324	     75.77886811	    -20.22988677	     18.55757509	     36.07503607	      0.62962816	     -0.60454018	      4.09800499	     -7.49999987	     55.62720576	     29.65355002	    -17.42536756	     54.53594539	      0.95183181	     10.75415431	    -32.19604469	     -7.49999987	    -34.94981307	     -0.92048694	    -15.43882856	     42.90401290	     -4.69278563	     60.29590210	    124.05146698	    112.06320390	     65.05731791	      4.21556253	     68.32027467	    119.55421159	    107.21021215
      6.53333330	    -17.16404232	     18.04830330	     20.14889692	      0.66645600	      0.87005156	      0.00505941	     77.55984132	    -20.60386451	     19.01747250	     36.71071809	      0.64072290	     -0.53673737	      4.66596554	     -7.49999987	     57.33999654	     29.64590696	    -18.27740869	     55.66707198	      0.97157369	     10.58593446	    -32.24339430	     -7.49999987	    -35.38653481	     -1.15457745	    -16.01893823	     43.09243334	     -4.31099121	     59.61122284	    123.83705757	    111.87716174	     65.56477793	      3.85753567	     68.43460495	    119.88219553	    107.25454732
      6.55000000	    -18.02342421	     18.17570578	     20.75670690	      0.66089099	      0.86255519	      0.00696468	     79.50747785	    -20.91389672	     19.53092145	     37.45569611	      0.65372522	     -0.40857155	      5.14922732	     -7.49999987	     59.27482355	     29.62553617	    -19.06835457	     56.92071309	      0.99345386	     10.42234287	    -32.31215997	     -7.49999987	    -35.63643965	     -1.33903874	    -16.73929495	     43.50734434	     -3.90553034	     58.78168100	    123.78291700	    111.73073133	     66.93450463	      3.36244454	     68.67270920	    120.14584076	    107.18343301
      6.56666670	    -18.97850323	     18.24209145	     21.53327714	      0.65575464	      0.85575107	      0.00904512	     81.59867761	    -21.24251325	     20.18393989	     38.23727030	      0.66736626	     -0.48592160	      5.49425312	     -7.49999987	     61.34634759	     29.60802944	    -19.91180059	     58.16355855	      1.01514560	     10.20842717	    -32.37262721	     -7.49999987	    -35.70701320	     -1.53034666	    -17.26055477	     44.29679514	     -3.52566224	     57.80680840	    123.36918255	    111.40414954	     68.18983165	      2.67325608	     69.05996509	    120.13110378	    105.33076150
      6.58333330	    -19.56762042	     18.28983103	     22.17139143	      0.65569585	      0.85685198	      0.00856823	     82.93037719	    -21.60594744	     20.61332787	     38.63376544	      0.67428641	     -0.41388436	      6.02357894	     -7.49999987	     62.76529493	     29.59517665	    -20.47480846	     59.12118068	      1.03185926	      9.85272938	    -32.38104484	     -7.49999987	    -36.42660658	     -1.39325514	    -17.73588234	     45.02555476	     -3.64077864	     57.30989275	    122.47929642	    111.27549628	     68.89351089	      2.10615091	     69.46265394	    119.30798296	    105.41533192
      6.60000000	    -20.25320603	     18.34100197	     22.77169840	      0.65569383	      0.85073183	      0.00776939	     84.43227899	    -21.91693743	     21.13727119	     39.07254832	      0.68194462	     -0.18541180	      6.76334679	     -7.49999987	     64.32096301	     29.56671327	    -21.15469987	     60.09308599	      1.04882221	      9.51868036	    -32.33386182	     -7.49999987	    -36.73594322	     -1.39815514	    -18.22052510	     45.33737685	     -3.60183917	     57.08073368	    121.81688635	    110.98391528	     68.98071802	      1.40489394	     69.96455053	    119.70513482	    104.69468583
      6.61666670	    -21.00574998	     18.30940230	     23.33393105	      0.65580535	      0.84214911	      0.00760770	     86.18472468	    -22.10777802	     21.73346409	     39.90064944	      0.69639771	      0.15304635	      7.41726476	     -7.49999987	     66.06742502	     29.48428706	    -21.81817028	     61.23649853	      1.06877852	      9.46148969	    -32.09244346	     -7.49999987	    -36.77633110	     -1.42500886	    -18.63840118	     45.99004982	     -3.42892142	     57.02855288	    121.54596666	    110.51531512	     68.87812145	      0.59012288	     70.16863474	    120.14880426	    104.61977068
      6.63333330	    -21.70895483	     18.25729317	     23.94241275	      0.65058629	      0.83409605	      0.00917690	     88.09820752	    -22.19098911	     22.53480757	     41.09477062	      0.71723905	      0.37708807	      7.73355882	     -7.49999987	     67.91387431	     29.34070361	    -22.58311148	     62.51011139	      1.09100726	      9.55645400	    -31.78739175	     -7.49999987	    -36.99246793	     -1.43881958	    -18.95143686	     46.82247300	     -3.27610143	     58.45159237	    121.09660213	    110.05894016	     69.01483494	     -0.18274232	     70.05941387	    120.64467405	    104.17304206
      6.65000000	    -22.27351957	     18.19527543	     24.53692878	      0.65031450	      0.83043575	      0.00880208	     89.85784517	    -22.30495772	     23.20833608	     42.16234614	      0.73587176	      0.56946192	      7.94908758	     -7.49999987	     69.51878684	     29.18611249	    -23.31321971	     63.73199066	      1.11233308	      9.52893924	    -31.70541556	     -7.49999987	    -37.43355502	     -1.43624036	    -19.25987636	     47.35119533	     -3.10459656	     58.66295150	    120.35395651	    107.01960758	     69.38766511	     -0.50187555	     70.31044890	    120.30175990	    101.52680483
      6.66666670	    -22.95764233	     17.91310483	     25.18000452	      0.64481335	      0.82225313	      0.00971899	     91.63087389	    -22.39598984	     23.75060841	     43.15981099	      0.75328081	      0.69727354	      8.02724057	     -7.49999987	     71.25192867	     28.87731560	    -23.93973269	     65.08484287	      1.13594480	      9.58571985	    -31.42018422	     -7.49999987	    -37.36821672	     -1.40664489	    -19.56162762	     47.76617222	     -2.70307893	     59.19979667	    119.96402357	    109.08563224	     70.00358442	     -0.81475762	     69.83693041	    120.78571995	    102.74661765
      6.68333330	    -23.26831374	     17.73615995	     25.65025074	      0.64516465	      0.81584297	      0.00899596	     92.88812221	    -22.50544361	     24.18642968	     43.98525618	      0.76768754	      0.82284097	      8.28193905	     -7.49999987	     72.45895538	     28.53937500	    -24.49247631	     66.36805469	      1.15834107	      9.75271605	    -31.02598348	     -7.49999987	    -37.64456251	     -1.40717125	    -19.88898469	     48.37667189	     -2.67809233	     59.75816176	    119.81185725	    109.22627639	     70.91323924	     -1.03285231	     69.62530834	    120.58706131	    102.04457311
      6.70000000	    -23.60220284	     17.60453054	     25.94770905	      0.65121772	      0.80985150	      0.00543419	     94.03263388	    -22.53330125	     24.59865632	     44.61615850	      0.77869887	      1.08595314	      8.64646352	     -7.49999987	     73.53997040	     28.17507799	    -25.00325568	     67.62952398	      1.18035786	     10.01891929	    -30.56719649	     -7.49999987	    -37.87007736	     -1.45625062	    -20.23043353	     47.81381264	     -2.77561534	     60.38488874	    119.38646184	    108.90751630	     70.80958562	     -1.29218730	     69.25079726	    120.21925755	    102.01217963
      6.71666670	    -23.85708491	     17.42205357	     26.16721054	      0.64557185	      0.80588940	      0.00803838	     94.90452369	    -22.48814876	     24.99689817	     45.05192394	      0.78630441	      1.21117567	      8.80690896	     -7.49999987	     74.44422467	     27.74596759	    -25.43603067	     68.74690815	      1.19985990	     10.07203524	    -30.41953078	     -7.49999987	    -38.22040934	     -1.51935061	    -20.38090666	     48.31864630	     -2.37004452	     59.89917811	    119.29513598	    108.83730224	     72.07899977	     -1.64077301	     68.54100734	    119.96633933	    101.98994510
      6.73333330	    -24.18820810	     17.37655324	     26.43715322	      0.64550773	      0.80252748	      0.00787400	     95.72889837	    -22.46660976	     25.54827900	     45.38175458	      0.79206104	      1.35992722	      9.05550699	     -7.49999987	     75.19584835	     27.36883748	    -25.98601027	     69.72520727	      1.21693444	     10.62602212	    -29.63089988	     -7.49999987	    -38.43431837	     -1.74478704	    -20.94351438	     48.12091419	     -1.53829758	     58.32882950	    118.72562966	    108.50132586	     73.45978581	     -2.20203797	     68.33333432	    119.74470638	    100.33628245
      6.75000000	    -24.34547154	     17.08509748	     26.68405040	      0.64048919	      0.79771634	      0.01003221	     96.28531567	    -22.45906665	     25.83916441	     45.65764052	      0.79687616	      1.41568431	      9.20558573	     -7.49999987	     75.85744571	     26.90129241	    -26.25905444	     70.64382076	      1.23296727	     10.55172363	    -29.56210698	     -7.49999987	    -38.84978477	     -1.55424109	    -21.12199388	     48.34928229	     -0.91799253	     57.40984988	    118.27295346	    108.40900397	     74.77172665	     -2.54804670	     67.73166121	    119.19301085	    100.32329030
